<svg width="700" height="467" viewBox="0 0 700 467" fill="none" xmlns="http://www.w3.org/2000/svg">
<g clip-path="url(#clip0_16_130)">
<path d="M570.767 381.108L569.452 380.83C569.726 379.529 569.98 378.205 570.207 376.894L571.531 377.123C571.3 378.45 571.043 379.791 570.767 381.108Z" fill="#292A2E"/>
<path d="M465.824 466.971L465.814 465.627C468.48 465.605 471.181 465.482 473.84 465.258L473.953 466.598C471.26 466.824 468.525 466.949 465.824 466.971ZM457.688 466.73C454.996 466.548 452.273 466.259 449.595 465.88L449.784 464.55C452.43 464.927 455.119 465.209 457.781 465.389L457.688 466.73ZM482.027 465.612L481.814 464.285C484.447 463.861 487.098 463.332 489.693 462.71L490.006 464.017C487.377 464.647 484.693 465.183 482.027 465.612ZM441.586 464.435C438.941 463.855 436.29 463.17 433.707 462.399L434.092 461.111C436.646 461.873 439.261 462.549 441.874 463.121L441.586 464.435ZM497.842 461.824L497.431 460.547C499.966 459.734 502.508 458.812 504.984 457.806L505.49 459.051C502.982 460.067 500.409 461.001 497.842 461.824ZM426 459.777C423.475 458.81 420.956 457.735 418.513 456.581L419.087 455.365C421.499 456.508 423.987 457.567 426.48 458.524L426 459.777ZM512.91 455.705L512.312 454.502C514.701 453.316 517.076 452.023 519.369 450.66L520.055 451.816C517.732 453.196 515.328 454.503 512.91 455.705H512.91ZM411.291 452.828C408.943 451.492 406.615 450.049 404.369 448.539L405.12 447.424C407.338 448.916 409.634 450.34 411.952 451.658L411.291 452.828ZM526.898 447.403L526.128 446.302C528.315 444.772 530.472 443.144 532.537 441.452L533.388 442.493C531.294 444.202 529.111 445.855 526.896 447.403H526.898ZM397.798 443.738C395.678 442.065 393.594 440.289 391.603 438.458L392.513 437.469C394.48 439.277 396.537 441.031 398.629 442.684L397.798 443.738ZM539.49 437.111L538.564 436.136C540.499 434.298 542.388 432.363 544.179 430.385L545.175 431.287C543.361 433.29 541.449 435.25 539.49 437.111ZM385.82 432.729C383.973 430.755 382.178 428.687 380.486 426.583L381.533 425.74C383.205 427.819 384.978 429.861 386.801 431.811L385.82 432.729ZM550.408 425.053L549.347 424.228C550.984 422.121 552.562 419.927 554.036 417.7L555.156 418.443C553.664 420.694 552.066 422.917 550.408 425.053L550.408 425.053ZM375.624 420.056C374.092 417.83 372.626 415.519 371.264 413.185L372.426 412.508C373.77 414.813 375.219 417.096 376.732 419.295L375.624 420.056ZM559.392 411.492L558.218 410.837C559.519 408.508 560.748 406.098 561.869 403.676L563.089 404.24C561.953 406.692 560.71 409.132 559.392 411.492ZM367.429 406.008C366.245 403.578 365.139 401.072 364.143 398.564L365.392 398.068C366.376 400.545 367.468 403.019 368.637 405.42L367.429 406.008ZM566.226 396.734L564.968 396.264C565.9 393.77 566.751 391.204 567.497 388.637L568.788 389.011C568.033 391.605 567.171 394.204 566.226 396.73V396.734Z" fill="#292A2E"/>
<path d="M361.408 390.835C361.005 389.551 360.625 388.24 360.273 386.937L361.57 386.586C361.918 387.869 362.295 389.164 362.691 390.432L361.408 390.835Z" fill="#292A2E"/>
<path d="M52.412 273.204C51.1116 272.819 49.8092 272.39 48.5424 271.93L49.0014 270.667C50.2427 271.118 51.5189 271.541 52.7937 271.915L52.412 273.204Z" fill="#292A2E"/>
<path d="M41.0619 268.683C38.6381 267.448 36.2929 266.064 34.0397 264.539L34.793 263.426C37.0005 264.92 39.2981 266.275 41.6728 267.485L41.0619 268.683ZM27.5834 259.56C25.5371 257.768 23.6029 255.852 21.7917 253.823L22.7944 252.928C24.5687 254.916 26.4636 256.793 28.4684 258.549L27.5834 259.56ZM16.748 247.42C15.1998 245.184 13.7895 242.856 12.5249 240.448L13.7144 239.823C14.9538 242.182 16.3358 244.463 17.8528 246.654L16.748 247.42ZM9.18348 233.015C8.2225 230.471 7.41857 227.871 6.77622 225.229L8.08267 224.911C8.71173 227.5 9.49928 230.048 10.4409 232.54L9.18348 233.015ZM5.34342 217.208C5.05382 214.701 4.90775 212.179 4.90592 209.655V209.068L6.25001 209.079V209.655C6.25096 212.127 6.39344 214.597 6.67675 217.053L5.34342 217.208ZM6.82191 201.114L5.48992 200.937C5.8503 198.242 6.37502 195.571 7.06116 192.94L8.36157 193.276C7.6889 195.855 7.17406 198.473 6.8199 201.114H6.82191ZM10.838 185.686L9.58737 185.191C10.5873 182.662 11.7416 180.196 13.0437 177.808L14.2238 178.452C12.9479 180.791 11.8172 183.207 10.838 185.686ZM18.4745 171.692L17.3831 170.907C18.9715 168.7 20.6948 166.592 22.543 164.596L23.5282 165.51C21.718 167.465 20.0302 169.53 18.4745 171.692ZM29.3058 159.999L28.4395 158.971C30.5193 157.219 32.7039 155.595 34.9812 154.109L35.7158 155.235C33.4842 156.69 31.3436 158.281 29.3058 159.997V159.999ZM42.6586 151.289L42.0672 150.079C44.5102 148.883 47.0238 147.837 49.5941 146.947L50.0336 148.217C47.5151 149.09 45.0522 150.115 42.6586 151.288V151.289Z" fill="#292A2E"/>
<path d="M57.7507 146.069L57.4705 144.754C58.7924 144.473 60.1412 144.229 61.4792 144.028L61.6808 145.358C60.367 145.554 59.0458 145.792 57.7507 146.069Z" fill="#292A2E"/>
<path d="M119.93 293.828C119.94 286.628 118.149 279.54 114.721 273.209C111.292 266.878 106.335 261.504 100.3 257.578C94.2655 253.651 87.3446 251.297 80.1674 250.727C72.9902 250.158 65.7846 251.393 59.2063 254.319C52.6281 257.245 46.886 261.77 42.5027 267.482C38.1193 273.193 35.2339 279.91 34.109 287.022C32.984 294.133 33.6553 301.413 36.0617 308.198C38.4681 314.984 42.5332 321.06 47.8871 325.874C52.6934 330.128 56.5483 335.349 59.2002 341.194C61.852 347.04 63.2412 353.379 63.2769 359.797V359.844L90.0807 359.875V359.829C90.1252 353.417 91.5231 347.086 94.1827 341.252C96.8424 335.417 100.704 330.21 105.515 325.97C110.048 321.932 113.676 316.98 116.161 311.441C118.645 305.901 119.929 299.899 119.93 293.828Z" fill="#367CFF"/>
<path opacity="0.8" d="M119.93 293.828C119.94 286.628 118.149 279.54 114.721 273.209C111.292 266.878 106.335 261.504 100.3 257.578C94.2655 253.651 87.3446 251.297 80.1674 250.727C72.9902 250.158 65.7846 251.393 59.2063 254.319C52.6281 257.245 46.886 261.77 42.5027 267.482C38.1193 273.193 35.2339 279.91 34.109 287.022C32.984 294.133 33.6553 301.413 36.0617 308.198C38.4681 314.984 42.5332 321.06 47.8871 325.874C52.6934 330.128 56.5483 335.349 59.2002 341.194C61.852 347.04 63.2412 353.379 63.2769 359.797V359.844L90.0807 359.875V359.829C90.1252 353.417 91.5231 347.086 94.1827 341.252C96.8424 335.417 100.704 330.21 105.515 325.97C110.048 321.932 113.676 316.98 116.161 311.441C118.645 305.901 119.929 299.899 119.93 293.828Z" fill="white"/>
<path d="M71.3744 359.969L60.869 299.921C60.7776 299.394 60.8821 298.851 61.1626 298.396C61.4432 297.94 61.8806 297.602 62.3925 297.447C63.4213 297.085 64.5149 296.944 65.6017 297.034C66.6885 297.124 67.744 297.443 68.699 297.97C69.0376 298.176 69.3568 298.413 69.6526 298.677C70.6451 297.79 71.8229 297.137 73.1002 296.763C77.0048 295.557 79.4261 297.095 80.7689 298.598C81.0561 298.922 81.3183 299.266 81.5532 299.629C83.3858 297.613 85.488 296.567 87.4141 296.785C87.8845 296.8 88.3469 296.911 88.7736 297.11C89.2002 297.308 89.5822 297.591 89.8966 297.942C90.2239 298.353 90.3791 298.875 90.3294 299.399L81.7528 359.961L80.4214 359.773L88.9987 299.21C89.0041 299.135 89.0175 298.319 87.2628 298.121C85.6654 297.938 83.8495 298.957 82.24 300.883C83.4497 303.514 83.5753 306.651 82.7655 308.499C82.6159 308.956 82.3328 309.357 81.9529 309.652C81.5729 309.946 81.1135 310.12 80.6338 310.151C80.1867 310.185 79.7391 310.091 79.3438 309.88C78.9486 309.668 78.6222 309.347 78.4033 308.956C77.3885 307.084 78.6553 303.668 80.2615 301.285C80.3883 301.097 80.5173 300.914 80.6486 300.736C80.399 300.292 80.1032 299.876 79.7662 299.494C78.195 297.734 76.0854 297.247 73.4974 298.047C72.4119 298.356 71.4097 298.905 70.5646 299.653C71.7166 301.27 72.4696 303.138 72.7622 305.102C73.2722 307.834 72.447 308.984 71.9093 309.426C71.6396 309.653 71.3132 309.802 70.9652 309.857C70.6173 309.912 70.2608 309.872 69.9342 309.74C68.3885 309.126 67.2158 306.488 67.3186 303.859C67.3551 302.349 67.8556 300.886 68.7521 299.67C68.5195 299.463 68.2687 299.277 68.0027 299.115C67.2082 298.689 66.3331 298.435 65.4341 298.369C64.5351 298.302 63.6322 298.425 62.7837 298.729C62.5855 298.79 62.4163 298.921 62.3079 299.098C62.1995 299.275 62.1593 299.485 62.1949 299.689L72.7003 359.738L71.3744 359.969ZM81.2978 302.151C79.736 304.518 78.9846 307.205 79.5854 308.313C79.6852 308.49 79.8373 308.633 80.0211 308.721C80.2049 308.809 80.4114 308.838 80.6123 308.804C80.9806 308.798 81.2911 308.512 81.5343 307.957C82.1331 306.586 82.0565 304.242 81.2978 302.151ZM69.6654 300.699C69.0406 301.657 68.6918 302.769 68.6573 303.912C68.5646 306.277 69.6251 308.173 70.4261 308.492C70.5295 308.534 70.6425 308.547 70.7527 308.529C70.8629 308.511 70.966 308.462 71.0505 308.389C71.244 308.229 71.8448 307.539 71.4362 305.349C71.187 303.689 70.583 302.103 69.6654 300.698V300.699Z" fill="white"/>
<path d="M63.277 359.844L90.0815 359.875L90.0797 361.441C90.0756 364.995 88.6597 368.402 86.1434 370.913C83.6272 373.423 80.2167 374.831 76.6623 374.827C74.9023 374.825 73.1599 374.476 71.5346 373.801C69.9093 373.126 68.433 372.137 67.1899 370.891C65.9467 369.645 64.9612 368.167 64.2895 366.54C63.6179 364.913 63.2732 363.17 63.2752 361.41L63.277 359.844Z" fill="#367CFF"/>
<path opacity="0.5" d="M63.277 359.844L90.0815 359.875L90.0797 361.441C90.0756 364.995 88.6597 368.402 86.1434 370.913C83.6272 373.423 80.2167 374.831 76.6623 374.827C74.9023 374.825 73.1599 374.476 71.5346 373.801C69.9093 373.126 68.433 372.137 67.1899 370.891C65.9467 369.645 64.9612 368.167 64.2895 366.54C63.6179 364.913 63.2732 363.17 63.2752 361.41L63.277 359.844Z" fill="white"/>
<path d="M75.2017 40.4826L74.0001 39.8811C74.6049 38.6714 75.2588 37.4617 75.9376 36.2957L77.0995 36.9718C76.4349 38.1136 75.7958 39.2951 75.2017 40.4826Z" fill="#292A2E"/>
<path d="M192.213 58.4893C191.808 55.9766 191.251 53.4908 190.544 51.0458L191.835 50.6721C192.557 53.1697 193.126 55.7089 193.54 58.2756L192.213 58.4893ZM187.979 43.8603C186.978 41.52 185.837 39.2427 184.56 37.041L185.722 36.369C187.027 38.6179 188.194 40.9444 189.217 43.3354L187.979 43.8603ZM180.334 30.6882C178.796 28.6618 177.135 26.7317 175.36 24.9086L176.323 23.9678C178.137 25.8309 179.835 27.8037 181.407 29.875L180.334 30.6882ZM81.3327 30.621L80.2628 29.8078C81.8371 27.738 83.537 25.7667 85.3529 23.9053L86.3146 24.8461C84.5378 26.6677 82.8749 28.597 81.3354 30.623L81.3327 30.621ZM169.706 19.783C167.719 18.1931 165.635 16.7269 163.467 15.3925L164.172 14.25C166.387 15.6135 168.515 17.1114 170.547 18.7352L169.706 19.783ZM91.9712 19.7265L91.1325 18.6761C93.1646 17.054 95.2945 15.5584 97.5102 14.1976L98.2138 15.3401C96.0459 16.6737 93.962 18.1393 91.9739 19.7285L91.9712 19.7265ZM156.741 11.7964C154.428 10.7333 152.053 9.81204 149.629 9.03765L150.037 7.75741C152.514 8.54823 154.94 9.48927 157.303 10.5753L156.741 11.7964ZM104.95 11.7608L104.392 10.5383C106.757 9.45916 109.186 8.52486 111.665 7.74061L112.068 9.0222C109.642 9.79 107.265 10.7045 104.95 11.7608ZM142.237 7.17408C139.735 6.70552 137.207 6.39131 134.667 6.23322L134.751 4.88913C137.346 5.04985 139.928 5.37035 142.484 5.84881L142.237 7.17408ZM119.47 7.17005L119.224 5.84679C121.78 5.37145 124.362 5.05253 126.957 4.89182L127.04 6.23591C124.5 6.39241 121.972 6.7037 119.47 7.16803V7.17005Z" fill="#292A2E"/>
<path d="M194.321 70.1345L192.977 70.0968C193.014 68.7756 193.009 67.4335 192.961 66.1083L194.305 66.0592C194.355 67.4134 194.359 68.785 194.321 70.1345Z" fill="#292A2E"/>
<path d="M55.1445 148.756C85.6 148.756 110.289 124.067 110.289 93.6117C110.289 63.1562 85.6 38.4671 55.1445 38.4671C24.6891 38.4671 0 63.1562 0 93.6117C0 124.067 24.6891 148.756 55.1445 148.756Z" fill="#367CFF"/>
<path opacity="0.8" d="M55.1445 148.756C85.6 148.756 110.289 124.067 110.289 93.6117C110.289 63.1562 85.6 38.4671 55.1445 38.4671C24.6891 38.4671 0 63.1562 0 93.6117C0 124.067 24.6891 148.756 55.1445 148.756Z" fill="white"/>
<path d="M67.035 94.3549C65.1895 98.3563 62.1327 101.676 58.2968 103.845C54.461 106.014 50.0403 106.921 45.6602 106.44C41.2801 105.958 37.1623 104.112 33.8893 101.162C30.6162 98.2112 28.3536 94.3065 27.4216 89.9997C26.4895 85.6929 26.9352 81.2021 28.6955 77.1625C30.4558 73.1229 33.4416 69.739 37.2307 67.4895C41.0197 65.24 45.4201 64.2388 49.8094 64.6274C54.1988 65.0161 58.3548 66.775 61.6896 69.6553C65.1342 72.6388 67.5175 76.6597 68.4814 81.1136C69.4454 85.5676 68.9378 90.2141 67.035 94.3549ZM33.1398 78.7541C31.4058 82.5087 31.1596 86.7811 32.451 90.71C33.7423 94.6389 36.4752 97.9321 40.0986 99.9258C43.722 101.919 47.9665 102.465 51.9765 101.453C55.9864 100.441 59.4636 97.9467 61.707 94.4724C63.9505 90.9981 64.7933 86.8025 64.0657 82.7313C63.3381 78.6601 61.0941 75.0162 57.7861 72.5341C54.478 70.052 50.352 68.9163 46.2398 69.3559C42.1275 69.7956 38.3349 71.7779 35.6264 74.9033C34.6211 76.064 33.784 77.3603 33.1398 78.7541Z" fill="white"/>
<path d="M83.1264 121.308C82.965 121.657 82.7205 121.961 82.4144 122.194C82.1083 122.427 81.7499 122.582 81.3703 122.645C80.9908 122.707 80.6017 122.676 80.2369 122.554C79.8721 122.432 79.5428 122.222 79.2776 121.944L59.3415 100.956C59.1283 100.732 58.9615 100.468 58.8504 100.179C58.7393 99.8903 58.6863 99.5824 58.6942 99.2731C58.7021 98.9637 58.7709 98.659 58.8966 98.3762C59.0223 98.0935 59.2025 97.8382 59.4268 97.6251C59.6511 97.412 59.9153 97.2451 60.2041 97.134C60.4929 97.023 60.8008 96.9699 61.1101 96.9778C61.4195 96.9857 61.7242 97.0545 62.007 97.1802C62.2898 97.3059 62.545 97.4861 62.7581 97.7104L82.693 118.698C83.018 119.039 83.2331 119.471 83.3104 119.936C83.3877 120.402 83.3236 120.879 83.1264 121.308Z" fill="white"/>
<path d="M383.478 94.783L382.201 94.371C382.613 93.0942 383.049 91.8018 383.498 90.5317L384.766 90.9806C384.318 92.2387 383.885 93.5176 383.478 94.783Z" fill="#292A2E"/>
<path d="M643.267 107.563C642.708 104.993 642.067 102.409 641.359 99.8798L642.654 99.5176C643.368 102.071 644.017 104.683 644.58 107.277L643.267 107.563ZM639.005 92.3213C638.15 89.8348 637.211 87.3442 636.212 84.9127L637.455 84.402C638.463 86.8576 639.413 89.3751 640.277 91.8838L639.005 92.3213ZM387.625 83.5942L386.386 83.072C387.416 80.6271 388.533 78.1802 389.705 75.7985L390.911 76.3919C389.75 78.7501 388.643 81.1735 387.625 83.5942ZM632.988 77.6802C631.845 75.3105 630.624 72.945 629.349 70.6486L630.524 69.996C631.812 72.3146 633.048 74.7044 634.2 77.0975L632.988 77.6802ZM394.614 69.3959L393.445 68.7326C394.756 66.4234 396.154 64.1244 397.598 61.8993L398.723 62.6345C397.296 64.8341 395.913 67.1103 394.615 69.3959H394.614ZM625.308 63.8441C623.896 61.6264 622.408 59.4167 620.872 57.2837L621.963 56.4987C623.513 58.6492 625.02 60.8818 626.442 63.1237L625.308 63.8441ZM403.235 56.1156L402.153 55.3179C403.729 53.1795 405.389 51.0605 407.088 49.0195L408.121 49.8797C406.439 51.9006 404.795 53.998 403.235 56.1156ZM616.062 50.9913C614.406 48.9523 612.665 46.9355 610.888 44.996L611.879 44.0881C613.673 46.0471 615.43 48.0847 617.103 50.1432L616.062 50.9913ZM413.368 43.9449L412.388 43.0249C414.202 41.0887 416.103 39.1808 418.033 37.3549L418.957 38.3307C417.046 40.1391 415.166 42.0276 413.368 43.9449ZM605.371 39.3146C603.482 37.4819 601.517 35.6855 599.524 33.9691L600.402 32.951C602.41 34.6828 604.396 36.4994 606.304 38.3502L605.371 39.3146ZM424.866 33.0565L424.001 32.0276C426.03 30.3206 428.14 28.6492 430.27 27.0605L431.076 28.1358C428.961 29.7111 426.872 31.3656 424.866 33.0565ZM593.379 28.9785C591.29 27.3831 589.125 25.8293 586.944 24.3602L587.695 23.2453C589.898 24.7292 592.085 26.2991 594.194 27.91L593.379 28.9785ZM437.555 23.5928L436.816 22.4705C439.033 21.0114 441.322 19.5988 443.622 18.2715L444.294 19.4355C442.017 20.7493 439.75 22.1485 437.555 23.5928ZM580.243 20.1304C577.984 18.7957 575.651 17.5094 573.311 16.3078L573.925 15.1116C576.289 16.326 578.644 17.6257 580.927 18.9731L580.243 20.1304ZM451.263 15.6788L450.658 14.4772C453.031 13.287 455.469 12.1512 457.906 11.1015L458.438 12.336C456.027 13.3737 453.612 14.5 451.263 15.6788ZM566.169 12.9032C563.767 11.8434 561.299 10.8394 558.836 9.91936L559.306 8.65995C561.793 9.58939 564.286 10.6028 566.712 11.6734L566.169 12.9032ZM465.8 9.41802L465.341 8.15458C467.836 7.24866 470.39 6.40726 472.935 5.64785L473.32 6.93616C470.8 7.68683 468.27 8.52151 465.8 9.41802ZM551.345 7.36224C548.826 6.58468 546.259 5.87299 543.714 5.24664L544.035 3.94086C546.605 4.57393 549.198 5.29302 551.741 6.07796L551.345 7.36224ZM480.966 4.90054L480.658 3.59207C483.244 2.98723 485.879 2.4496 488.49 1.99328L488.72 3.31788C486.134 3.76344 483.526 4.30108 480.966 4.90054ZM535.97 3.57863C533.383 3.10014 530.75 2.69288 528.146 2.36895L528.312 1.03562C530.942 1.3629 533.601 1.77487 536.214 2.25739L535.97 3.57863ZM496.552 2.19355L496.4 0.8582C499.037 0.55914 501.716 0.33535 504.363 0.192877L504.435 1.53696C501.815 1.67608 499.162 1.89785 496.552 2.19355ZM520.263 1.62231C517.642 1.45229 514.98 1.3582 512.351 1.34409L512.357 0C515.015 0.0141129 517.703 0.108871 520.35 0.280914L520.263 1.62231Z" fill="#292A2E"/>
<path d="M645.282 119.358C645.117 118.036 644.929 116.699 644.724 115.385L646.052 115.179C646.259 116.505 646.449 117.856 646.616 119.191L645.282 119.358Z" fill="#292A2E"/>
<path d="M668.909 164.963C667.935 164.059 666.929 163.164 665.917 162.301L666.791 161.278C667.817 162.152 668.838 163.061 669.826 163.978L668.909 164.963Z" fill="#292A2E"/>
<path d="M607.92 327.74L607.884 326.396C610.499 326.329 613.143 326.146 615.741 325.859L615.89 327.195C613.254 327.487 610.572 327.67 607.92 327.74ZM599.931 327.616C597.28 327.463 594.606 327.195 591.982 326.82L592.173 325.49C594.759 325.859 597.396 326.123 600.009 326.274L599.931 327.616ZM623.789 325.981L623.529 324.663C626.097 324.157 628.673 323.535 631.185 322.817L631.556 324.109C629.004 324.838 626.391 325.471 623.786 325.981H623.789ZM639.137 321.588L638.66 320.332C641.107 319.402 643.542 318.355 645.898 317.223L646.48 318.432C644.087 319.583 641.618 320.644 639.134 321.588H639.137ZM653.529 314.666L652.845 313.508C655.099 312.177 657.323 310.733 659.452 309.217L660.232 310.313C658.068 311.853 655.813 313.318 653.526 314.668L653.529 314.666ZM666.542 305.406L665.672 304.38C667.665 302.69 669.612 300.891 671.461 299.033L672.414 299.981C670.536 301.869 668.56 303.697 666.539 305.408L666.542 305.406ZM677.806 294.088L676.778 293.222C678.465 291.216 680.085 289.123 681.593 286.99L682.69 287.766C681.159 289.93 679.515 292.056 677.803 294.09L677.806 294.088ZM687.025 281.059L685.867 280.378C687.191 278.125 688.436 275.787 689.563 273.428L690.773 274.008C689.629 276.404 688.366 278.776 687.022 281.061L687.025 281.059ZM693.918 266.662L692.661 266.187C693.585 263.741 694.415 261.225 695.128 258.709L696.421 259.076C695.696 261.631 694.853 264.18 693.915 266.667L693.918 266.662ZM698.273 251.305L696.953 251.049C697.45 248.484 697.844 245.864 698.124 243.261L699.46 243.405C699.174 246.047 698.775 248.705 698.27 251.307L698.273 251.305ZM699.978 235.432L698.634 235.402C698.651 234.691 698.659 233.98 698.659 233.27C698.659 231.362 698.599 229.43 698.482 227.528L699.827 227.446C699.945 229.375 700.005 231.334 700.005 233.27C700.002 233.992 699.992 234.714 699.976 235.435L699.978 235.432ZM697.671 219.694C697.292 217.104 696.798 214.501 696.204 211.957L697.513 211.65C698.118 214.232 698.616 216.873 699.001 219.5L697.671 219.694ZM694.087 204.368C693.28 201.882 692.356 199.395 691.341 196.987L692.581 196.465C693.609 198.911 694.547 201.43 695.366 203.954L694.087 204.368ZM687.98 189.864C686.764 187.548 685.433 185.256 684.025 183.053L685.159 182.329C686.587 184.564 687.937 186.889 689.171 189.239L687.98 189.864ZM679.505 176.602C677.917 174.528 676.217 172.495 674.454 170.558L675.447 169.653C677.237 171.618 678.961 173.681 680.573 175.784L679.505 176.602Z" fill="#292A2E"/>
<path d="M584.106 325.35C582.794 325.047 581.469 324.711 580.169 324.352L580.527 323.057C581.809 323.411 583.115 323.742 584.408 324.041L584.106 325.35Z" fill="#292A2E"/>
<path d="M652.185 174.8C678.222 174.8 699.328 153.693 699.328 127.657C699.328 101.621 678.222 80.5149 652.185 80.5149C626.149 80.5149 605.043 101.621 605.043 127.657C605.043 153.693 626.149 174.8 652.185 174.8Z" fill="white"/>
<path opacity="0.2" d="M652.185 174.8C678.222 174.8 699.328 153.693 699.328 127.657C699.328 101.621 678.222 80.5149 652.185 80.5149C626.149 80.5149 605.043 101.621 605.043 127.657C605.043 153.693 626.149 174.8 652.185 174.8Z" fill="#367CFF"/>
<path d="M652.185 163.708C672.096 163.708 688.236 147.567 688.236 127.657C688.236 107.747 672.096 91.6069 652.185 91.6069C632.275 91.6069 616.135 107.747 616.135 127.657C616.135 147.567 632.275 163.708 652.185 163.708Z" fill="white"/>
<path opacity="0.2" d="M652.185 152.615C665.969 152.615 677.143 141.441 677.143 127.657C677.143 113.874 665.969 102.7 652.185 102.7C638.402 102.7 627.228 113.874 627.228 127.657C627.228 141.441 638.402 152.615 652.185 152.615Z" fill="#367CFF"/>
<path d="M652.185 141.523C659.843 141.523 666.051 135.315 666.051 127.657C666.051 120 659.843 113.792 652.185 113.792C644.528 113.792 638.32 120 638.32 127.657C638.32 135.315 644.528 141.523 652.185 141.523Z" fill="white"/>
<path opacity="0.2" d="M652.185 132.04C654.606 132.04 656.569 130.078 656.569 127.657C656.569 125.237 654.606 123.274 652.185 123.274C649.765 123.274 647.802 125.237 647.802 127.657C647.802 130.078 649.765 132.04 652.185 132.04Z" fill="#367CFF"/>
<path d="M672.163 349.423H662.197C661.405 349.424 660.632 349.179 659.985 348.721C659.339 348.264 658.85 347.617 658.588 346.869C657.825 344.679 656.923 342.54 655.887 340.465C655.529 339.747 655.406 338.935 655.536 338.143C655.667 337.352 656.043 336.621 656.612 336.056L663.696 328.973C664.415 328.252 664.819 327.276 664.819 326.258C664.819 325.239 664.415 324.263 663.696 323.543L648.393 308.247C647.673 307.527 646.696 307.123 645.678 307.123C644.66 307.123 643.683 307.527 642.963 308.247L635.753 315.457C635.192 316.021 634.469 316.395 633.684 316.528C632.9 316.66 632.094 316.544 631.378 316.197C629.343 315.202 627.247 314.338 625.102 313.609C624.346 313.352 623.69 312.864 623.226 312.214C622.762 311.564 622.513 310.785 622.514 309.987V299.772C622.514 299.268 622.415 298.769 622.222 298.303C622.03 297.838 621.747 297.415 621.391 297.058C621.034 296.702 620.611 296.419 620.146 296.226C619.68 296.034 619.181 295.934 618.677 295.934H597.044C596.54 295.934 596.04 296.033 595.575 296.226C595.109 296.419 594.686 296.701 594.329 297.058C593.973 297.414 593.69 297.837 593.497 298.303C593.305 298.769 593.205 299.268 593.206 299.772V309.987C593.207 310.785 592.958 311.564 592.494 312.214C592.03 312.864 591.375 313.352 590.619 313.609C588.474 314.338 586.377 315.202 584.341 316.197C583.626 316.544 582.82 316.66 582.035 316.528C581.251 316.395 580.528 316.021 579.966 315.457L572.755 308.246C572.035 307.527 571.058 307.122 570.04 307.122C569.022 307.122 568.045 307.527 567.325 308.246L552.023 323.542C551.303 324.262 550.899 325.239 550.899 326.257C550.899 327.275 551.303 328.252 552.023 328.972L559.106 336.055C559.675 336.621 560.052 337.351 560.182 338.142C560.312 338.934 560.19 339.746 559.833 340.464C558.796 342.538 557.895 344.677 557.138 346.869C556.873 347.616 556.383 348.263 555.735 348.72C555.088 349.177 554.314 349.423 553.521 349.422H543.555C543.051 349.422 542.552 349.521 542.086 349.714C541.621 349.907 541.198 350.19 540.842 350.546C540.485 350.903 540.203 351.326 540.01 351.791C539.817 352.257 539.718 352.756 539.718 353.26V374.9C539.718 375.403 539.817 375.903 540.01 376.368C540.203 376.834 540.485 377.257 540.842 377.613C541.198 377.969 541.621 378.252 542.086 378.445C542.552 378.638 543.051 378.737 543.555 378.737H553.259C554.067 378.736 554.853 378.991 555.508 379.464C556.162 379.937 556.65 380.604 556.902 381.371C557.651 383.621 558.547 385.819 559.584 387.951C559.936 388.669 560.055 389.479 559.925 390.268C559.794 391.057 559.421 391.786 558.857 392.353L552.023 399.187C551.667 399.543 551.384 399.966 551.191 400.431C550.998 400.896 550.898 401.395 550.898 401.899C550.898 402.403 550.998 402.901 551.191 403.367C551.384 403.832 551.667 404.255 552.023 404.611L567.325 419.913C568.045 420.633 569.022 421.037 570.04 421.037C571.058 421.037 572.035 420.633 572.755 419.913L579.456 413.213C580.027 412.643 580.763 412.268 581.559 412.14C582.355 412.013 583.171 412.139 583.892 412.5C586.059 413.583 588.298 414.517 590.592 415.296C591.353 415.553 592.014 416.042 592.483 416.694C592.952 417.346 593.205 418.129 593.206 418.932V428.381C593.205 428.885 593.304 429.385 593.496 429.851C593.689 430.318 593.972 430.742 594.328 431.099C594.685 431.456 595.108 431.739 595.574 431.932C596.04 432.126 596.54 432.225 597.044 432.225H618.677C619.182 432.225 619.681 432.125 620.147 431.932C620.613 431.739 621.036 431.455 621.393 431.098C621.749 430.741 622.032 430.318 622.224 429.851C622.416 429.385 622.515 428.885 622.514 428.381V418.932C622.516 418.129 622.769 417.346 623.237 416.694C623.706 416.042 624.368 415.553 625.128 415.296C627.423 414.517 629.661 413.583 631.829 412.5C632.549 412.139 633.365 412.013 634.161 412.141C634.957 412.268 635.693 412.644 636.264 413.213L642.964 419.913C643.685 420.633 644.661 421.037 645.679 421.037C646.698 421.037 647.674 420.633 648.394 419.913L663.697 404.611C664.054 404.255 664.336 403.832 664.529 403.367C664.723 402.901 664.822 402.403 664.822 401.899C664.822 401.395 664.723 400.896 664.529 400.431C664.336 399.966 664.054 399.543 663.697 399.187L656.862 392.353C656.298 391.785 655.925 391.057 655.795 390.268C655.665 389.479 655.785 388.669 656.136 387.951C657.173 385.819 658.069 383.621 658.818 381.371C659.07 380.604 659.558 379.937 660.212 379.464C660.866 378.991 661.653 378.736 662.46 378.737H672.165C672.669 378.737 673.168 378.638 673.633 378.445C674.099 378.253 674.522 377.97 674.879 377.614C675.235 377.257 675.518 376.834 675.71 376.368C675.903 375.903 676.002 375.404 676.002 374.9V353.26C676.002 352.756 675.903 352.257 675.71 351.791C675.517 351.325 675.234 350.902 674.878 350.546C674.521 350.189 674.098 349.907 673.632 349.714C673.167 349.522 672.667 349.423 672.163 349.423ZM607.862 396.056C601.537 396.057 595.354 394.182 590.094 390.668C584.835 387.154 580.735 382.16 578.315 376.316C575.894 370.473 575.26 364.043 576.494 357.839C577.728 351.635 580.774 345.937 585.246 341.464C589.719 336.992 595.417 333.946 601.621 332.712C607.824 331.478 614.255 332.112 620.098 334.533C625.942 336.954 630.936 341.053 634.45 346.312C637.964 351.572 639.839 357.755 639.838 364.08C639.837 372.56 636.468 380.693 630.472 386.689C624.476 392.686 616.344 396.055 607.864 396.056H607.862Z" fill="#367CFF"/>
<path opacity="0.8" d="M672.163 349.423H662.197C661.405 349.424 660.632 349.179 659.985 348.721C659.339 348.264 658.85 347.617 658.588 346.869C657.825 344.679 656.923 342.54 655.887 340.465C655.529 339.747 655.406 338.935 655.536 338.143C655.667 337.352 656.043 336.621 656.612 336.056L663.696 328.973C664.415 328.252 664.819 327.276 664.819 326.258C664.819 325.239 664.415 324.263 663.696 323.543L648.393 308.247C647.673 307.527 646.696 307.123 645.678 307.123C644.66 307.123 643.683 307.527 642.963 308.247L635.753 315.457C635.192 316.021 634.469 316.395 633.684 316.528C632.9 316.66 632.094 316.544 631.378 316.197C629.343 315.202 627.247 314.338 625.102 313.609C624.346 313.352 623.69 312.864 623.226 312.214C622.762 311.564 622.513 310.785 622.514 309.987V299.772C622.514 299.268 622.415 298.769 622.222 298.303C622.03 297.838 621.747 297.415 621.391 297.058C621.034 296.702 620.611 296.419 620.146 296.226C619.68 296.034 619.181 295.934 618.677 295.934H597.044C596.54 295.934 596.04 296.033 595.575 296.226C595.109 296.419 594.686 296.701 594.329 297.058C593.973 297.414 593.69 297.837 593.497 298.303C593.305 298.769 593.205 299.268 593.206 299.772V309.987C593.207 310.785 592.958 311.564 592.494 312.214C592.03 312.864 591.375 313.352 590.619 313.609C588.474 314.338 586.377 315.202 584.341 316.197C583.626 316.544 582.82 316.66 582.035 316.528C581.251 316.395 580.528 316.021 579.966 315.457L572.755 308.246C572.035 307.527 571.058 307.122 570.04 307.122C569.022 307.122 568.045 307.527 567.325 308.246L552.023 323.542C551.303 324.262 550.899 325.239 550.899 326.257C550.899 327.275 551.303 328.252 552.023 328.972L559.106 336.055C559.675 336.621 560.052 337.351 560.182 338.142C560.312 338.934 560.19 339.746 559.833 340.464C558.796 342.538 557.895 344.677 557.138 346.869C556.873 347.616 556.383 348.263 555.735 348.72C555.088 349.177 554.314 349.423 553.521 349.422H543.555C543.051 349.422 542.552 349.521 542.086 349.714C541.621 349.907 541.198 350.19 540.842 350.546C540.485 350.903 540.203 351.326 540.01 351.791C539.817 352.257 539.718 352.756 539.718 353.26V374.9C539.718 375.403 539.817 375.903 540.01 376.368C540.203 376.834 540.485 377.257 540.842 377.613C541.198 377.969 541.621 378.252 542.086 378.445C542.552 378.638 543.051 378.737 543.555 378.737H553.259C554.067 378.736 554.853 378.991 555.508 379.464C556.162 379.937 556.65 380.604 556.902 381.371C557.651 383.621 558.547 385.819 559.584 387.951C559.936 388.669 560.055 389.479 559.925 390.268C559.794 391.057 559.421 391.786 558.857 392.353L552.023 399.187C551.667 399.543 551.384 399.966 551.191 400.431C550.998 400.896 550.898 401.395 550.898 401.899C550.898 402.403 550.998 402.901 551.191 403.367C551.384 403.832 551.667 404.255 552.023 404.611L567.325 419.913C568.045 420.633 569.022 421.037 570.04 421.037C571.058 421.037 572.035 420.633 572.755 419.913L579.456 413.213C580.027 412.643 580.763 412.268 581.559 412.14C582.355 412.013 583.171 412.139 583.892 412.5C586.059 413.583 588.298 414.517 590.592 415.296C591.353 415.553 592.014 416.042 592.483 416.694C592.952 417.346 593.205 418.129 593.206 418.932V428.381C593.205 428.885 593.304 429.385 593.496 429.851C593.689 430.318 593.972 430.742 594.328 431.099C594.685 431.456 595.108 431.739 595.574 431.932C596.04 432.126 596.54 432.225 597.044 432.225H618.677C619.182 432.225 619.681 432.125 620.147 431.932C620.613 431.739 621.036 431.455 621.393 431.098C621.749 430.741 622.032 430.318 622.224 429.851C622.416 429.385 622.515 428.885 622.514 428.381V418.932C622.516 418.129 622.769 417.346 623.237 416.694C623.706 416.042 624.368 415.553 625.128 415.296C627.423 414.517 629.661 413.583 631.829 412.5C632.549 412.139 633.365 412.013 634.161 412.141C634.957 412.268 635.693 412.644 636.264 413.213L642.964 419.913C643.685 420.633 644.661 421.037 645.679 421.037C646.698 421.037 647.674 420.633 648.394 419.913L663.697 404.611C664.054 404.255 664.336 403.832 664.529 403.367C664.723 402.901 664.822 402.403 664.822 401.899C664.822 401.395 664.723 400.896 664.529 400.431C664.336 399.966 664.054 399.543 663.697 399.187L656.862 392.353C656.298 391.785 655.925 391.057 655.795 390.268C655.665 389.479 655.785 388.669 656.136 387.951C657.173 385.819 658.069 383.621 658.818 381.371C659.07 380.604 659.558 379.937 660.212 379.464C660.866 378.991 661.653 378.736 662.46 378.737H672.165C672.669 378.737 673.168 378.638 673.633 378.445C674.099 378.253 674.522 377.97 674.879 377.614C675.235 377.257 675.518 376.834 675.71 376.368C675.903 375.903 676.002 375.404 676.002 374.9V353.26C676.002 352.756 675.903 352.257 675.71 351.791C675.517 351.325 675.234 350.902 674.878 350.546C674.521 350.189 674.098 349.907 673.632 349.714C673.167 349.522 672.667 349.423 672.163 349.423ZM607.862 396.056C601.537 396.057 595.354 394.182 590.094 390.668C584.835 387.154 580.735 382.16 578.315 376.316C575.894 370.473 575.26 364.043 576.494 357.839C577.728 351.635 580.774 345.937 585.246 341.464C589.719 336.992 595.417 333.946 601.621 332.712C607.824 331.478 614.255 332.112 620.098 334.533C625.942 336.954 630.936 341.053 634.45 346.312C637.964 351.572 639.839 357.755 639.838 364.08C639.837 372.56 636.468 380.693 630.472 386.689C624.476 392.686 616.344 396.055 607.864 396.056H607.862Z" fill="white"/>
<path d="M578.101 39.1391H124.682C113.547 39.1391 104.52 48.1657 104.52 59.3004V391.273C104.52 402.408 113.547 411.435 124.682 411.435H578.101C589.236 411.435 598.263 402.408 598.263 391.273V59.3004C598.263 48.1657 589.236 39.1391 578.101 39.1391Z" fill="white"/>
<path d="M578.102 412.107H124.682C119.158 412.1 113.863 409.903 109.957 405.998C106.052 402.092 103.855 396.797 103.848 391.273V59.3005C103.855 53.7771 106.052 48.4817 109.957 44.5761C113.863 40.6705 119.158 38.4735 124.682 38.4671H578.102C583.625 38.4735 588.921 40.6705 592.826 44.5761C596.732 48.4817 598.929 53.7771 598.935 59.3005V391.273C598.929 396.797 596.732 402.092 592.826 405.998C588.921 409.903 583.625 412.1 578.102 412.107ZM124.682 39.8112C119.514 39.8169 114.561 41.872 110.907 45.5257C107.253 49.1795 105.198 54.1333 105.192 59.3005V391.273C105.198 396.44 107.253 401.394 110.907 405.048C114.561 408.701 119.514 410.757 124.682 410.762H578.102C583.269 410.756 588.223 408.701 591.876 405.047C595.53 401.394 597.585 396.44 597.591 391.273V59.3005C597.585 54.1334 595.53 49.1796 591.877 45.5259C588.223 41.8723 583.269 39.8171 578.102 39.8112H124.682Z" fill="#292A2E"/>
<path d="M565.147 310.285H136.264C130.315 310.285 125.493 315.108 125.493 321.057V380.414C125.493 386.363 130.315 391.186 136.264 391.186H565.147C571.096 391.186 575.919 386.363 575.919 380.414V321.057C575.919 315.108 571.096 310.285 565.147 310.285Z" fill="#367CFF"/>
<path d="M565.147 206.101H136.264C130.315 206.101 125.493 210.924 125.493 216.873V276.23C125.493 282.179 130.315 287.002 136.264 287.002H565.147C571.096 287.002 575.919 282.179 575.919 276.23V216.873C575.919 210.924 571.096 206.101 565.147 206.101Z" fill="#367CFF"/>
<g opacity="0.9">
<path d="M565.147 310.285H136.264C130.315 310.285 125.493 315.108 125.493 321.057V380.414C125.493 386.363 130.315 391.186 136.264 391.186H565.147C571.096 391.186 575.919 386.363 575.919 380.414V321.057C575.919 315.108 571.096 310.285 565.147 310.285Z" fill="white"/>
</g>
<g opacity="0.9">
<path d="M565.147 206.101H136.264C130.315 206.101 125.493 210.924 125.493 216.873V276.23C125.493 282.179 130.315 287.002 136.264 287.002H565.147C571.096 287.002 575.919 282.179 575.919 276.23V216.873C575.919 210.924 571.096 206.101 565.147 206.101Z" fill="white"/>
</g>
<path d="M565.147 101.916H136.264C130.315 101.916 125.493 106.739 125.493 112.688V172.045C125.493 177.994 130.315 182.817 136.264 182.817H565.147C571.096 182.817 575.919 177.994 575.919 172.045V112.688C575.919 106.739 571.096 101.916 565.147 101.916Z" fill="#367CFF"/>
<path opacity="0.2" d="M565.147 101.916H136.264C130.315 101.916 125.493 106.739 125.493 112.688V172.045C125.493 177.994 130.315 182.817 136.264 182.817H565.147C571.096 182.817 575.919 177.994 575.919 172.045V112.688C575.919 106.739 571.096 101.916 565.147 101.916Z" fill="white"/>
<path d="M565.147 183.489H136.264C133.23 183.485 130.321 182.278 128.176 180.132C126.031 177.987 124.824 175.077 124.821 172.043V112.688C124.825 109.654 126.031 106.745 128.176 104.6C130.322 102.455 133.23 101.248 136.264 101.244H565.147C568.181 101.247 571.09 102.454 573.236 104.6C575.381 106.745 576.588 109.654 576.591 112.688V172.043C576.588 175.078 575.382 177.987 573.236 180.133C571.091 182.278 568.181 183.485 565.147 183.489ZM136.264 102.588C133.587 102.591 131.02 103.657 129.126 105.55C127.233 107.444 126.168 110.011 126.165 112.688V172.043C126.168 174.721 127.233 177.288 129.126 179.181C131.02 181.075 133.587 182.14 136.264 182.143H565.147C567.825 182.14 570.392 181.075 572.286 179.182C574.179 177.288 575.244 174.721 575.247 172.043V112.688C575.244 110.01 574.179 107.443 572.286 105.55C570.392 103.656 567.825 102.591 565.147 102.588H136.264Z" fill="#292A2E"/>
<path d="M263.971 115.973H147.742C144.741 115.973 142.307 118.406 142.307 121.407C142.307 124.409 144.741 126.842 147.742 126.842H263.971C266.973 126.842 269.406 124.409 269.406 121.407C269.406 118.406 266.973 115.973 263.971 115.973Z" fill="white"/>
<path d="M360.922 169.498H142.306C142.128 169.498 141.957 169.427 141.831 169.301C141.705 169.175 141.634 169.004 141.634 168.826C141.634 168.648 141.705 168.477 141.831 168.351C141.957 168.225 142.128 168.154 142.306 168.154H360.922C361.1 168.154 361.271 168.225 361.397 168.351C361.523 168.477 361.594 168.648 361.594 168.826C361.594 169.004 361.523 169.175 361.397 169.301C361.271 169.427 361.1 169.498 360.922 169.498Z" fill="white"/>
<path d="M557.158 155.216H142.306C142.128 155.216 141.957 155.145 141.831 155.019C141.705 154.893 141.634 154.722 141.634 154.544C141.634 154.366 141.705 154.195 141.831 154.069C141.957 153.943 142.128 153.872 142.306 153.872H557.158C557.337 153.872 557.508 153.943 557.634 154.069C557.76 154.195 557.831 154.366 557.831 154.544C557.831 154.722 557.76 154.893 557.634 155.019C557.508 155.145 557.337 155.216 557.158 155.216Z" fill="white"/>
<path d="M557.158 140.933H142.306C142.128 140.933 141.957 140.862 141.831 140.736C141.705 140.61 141.634 140.439 141.634 140.261C141.634 140.083 141.705 139.912 141.831 139.786C141.957 139.66 142.128 139.589 142.306 139.589H557.158C557.337 139.589 557.508 139.66 557.634 139.786C557.76 139.912 557.831 140.083 557.831 140.261C557.831 140.439 557.76 140.61 557.634 140.736C557.508 140.862 557.337 140.933 557.158 140.933Z" fill="white"/>
<path d="M565.147 287.674H136.264C133.23 287.67 130.322 286.463 128.176 284.318C126.031 282.172 124.825 279.263 124.821 276.229V216.873C124.825 213.839 126.031 210.93 128.176 208.784C130.322 206.639 133.23 205.432 136.264 205.429H565.147C568.181 205.432 571.09 206.639 573.236 208.784C575.381 210.93 576.588 213.838 576.591 216.873V276.229C576.588 279.264 575.381 282.173 573.236 284.318C571.09 286.463 568.181 287.67 565.147 287.674ZM136.264 206.773C133.587 206.776 131.02 207.841 129.126 209.734C127.233 211.628 126.168 214.195 126.165 216.873V276.229C126.168 278.907 127.233 281.474 129.126 283.368C131.02 285.261 133.587 286.326 136.264 286.33H565.147C567.825 286.327 570.392 285.261 572.286 283.368C574.179 281.474 575.244 278.907 575.247 276.229V216.873C575.244 214.195 574.179 211.628 572.285 209.734C570.392 207.841 567.825 206.776 565.147 206.773H136.264Z" fill="#292A2E"/>
<path d="M565.147 391.858H136.264C133.23 391.854 130.322 390.648 128.177 388.502C126.031 386.357 124.825 383.448 124.821 380.414V321.057C124.824 318.022 126.03 315.113 128.176 312.967C130.321 310.821 133.23 309.614 136.264 309.611H565.147C568.181 309.614 571.09 310.821 573.235 312.966C575.381 315.111 576.588 318.02 576.591 321.054V380.412C576.588 383.446 575.382 386.356 573.236 388.502C571.091 390.647 568.182 391.854 565.147 391.858ZM136.264 310.955C133.587 310.958 131.02 312.023 129.127 313.916C127.233 315.81 126.168 318.377 126.165 321.054V380.412C126.168 383.089 127.233 385.656 129.127 387.549C131.02 389.443 133.587 390.508 136.264 390.511H565.147C567.825 390.508 570.392 389.443 572.285 387.55C574.179 385.656 575.244 383.089 575.247 380.412V321.057C575.245 318.379 574.18 315.811 572.286 313.917C570.393 312.023 567.825 310.958 565.147 310.955H136.264Z" fill="#292A2E"/>
<path d="M598.263 59.2978V79.5854H104.523V59.2978C104.523 53.9506 106.647 48.8225 110.428 45.0416C114.209 41.2606 119.337 39.1364 124.684 39.1364H578.101C583.448 39.1364 588.577 41.2606 592.358 45.0416C596.139 48.8225 598.263 53.9506 598.263 59.2978Z" fill="#292A2E"/>
<path d="M561.39 244.446L555.537 235.079L546.07 240.769L563.45 168.359L578.769 172.036L561.39 244.446Z" fill="#367CFF"/>
<path d="M561.39 245.118C561.276 245.118 561.164 245.089 561.064 245.034C560.964 244.978 560.88 244.899 560.82 244.802L555.317 235.998L546.416 241.348C546.303 241.417 546.172 241.45 546.04 241.444C545.907 241.438 545.78 241.393 545.673 241.315C545.566 241.236 545.485 241.128 545.439 241.004C545.393 240.88 545.386 240.745 545.416 240.616L562.797 168.205C562.839 168.033 562.947 167.884 563.098 167.791C563.249 167.698 563.431 167.668 563.603 167.708L578.926 171.386C579.012 171.407 579.093 171.444 579.164 171.496C579.236 171.548 579.296 171.613 579.342 171.688C579.388 171.764 579.419 171.847 579.433 171.934C579.447 172.022 579.443 172.111 579.423 172.196L562.043 244.603C562.012 244.732 561.944 244.848 561.847 244.938C561.75 245.028 561.628 245.088 561.498 245.109C561.462 245.115 561.426 245.118 561.39 245.118ZM555.536 234.407C555.65 234.407 555.762 234.436 555.862 234.491C555.962 234.546 556.046 234.626 556.107 234.723L561.11 242.731L577.958 172.532L563.945 169.172L547.097 239.367L555.191 234.503C555.295 234.441 555.415 234.408 555.536 234.409V234.407Z" fill="#292A2E"/>
<path d="M581.942 244.446L587.794 235.079L597.261 240.769L579.882 168.359L564.562 172.036L581.942 244.446Z" fill="#367CFF"/>
<path d="M581.942 245.118C581.906 245.118 581.87 245.115 581.834 245.109C581.703 245.088 581.582 245.028 581.485 244.938C581.388 244.848 581.32 244.732 581.289 244.603L563.912 172.193C563.891 172.107 563.888 172.018 563.902 171.931C563.915 171.844 563.946 171.76 563.992 171.685C564.038 171.61 564.099 171.544 564.17 171.492C564.242 171.44 564.323 171.403 564.408 171.383L579.731 167.705C579.904 167.664 580.087 167.693 580.239 167.786C580.391 167.879 580.499 168.029 580.541 168.202L597.917 240.612C597.948 240.741 597.94 240.876 597.894 241C597.849 241.124 597.768 241.232 597.661 241.311C597.554 241.389 597.427 241.434 597.295 241.44C597.162 241.446 597.031 241.413 596.918 241.345L588.017 235.995L582.515 244.799C582.454 244.896 582.37 244.977 582.27 245.033C582.17 245.089 582.057 245.118 581.942 245.118ZM565.372 172.532L582.221 242.731L587.224 234.723C587.318 234.573 587.466 234.466 587.638 234.425C587.809 234.384 587.99 234.412 588.141 234.503L596.234 239.367L579.385 169.169L565.372 172.532Z" fill="#292A2E"/>
<path d="M610.925 182.267C610.925 186.26 605.913 189.412 604.742 193.015C603.532 196.75 605.689 202.237 603.427 205.346C601.142 208.485 595.241 208.115 592.101 210.399C588.993 212.661 587.531 218.401 583.799 219.614C580.196 220.784 575.657 217.036 571.665 217.036C567.672 217.036 563.13 220.784 559.529 219.614C555.796 218.404 554.336 212.661 551.228 210.399C548.089 208.114 542.186 208.484 539.902 205.345C537.64 202.237 539.8 196.749 538.587 193.015C537.417 189.412 532.404 186.26 532.404 182.267C532.404 178.274 537.417 175.122 538.587 171.519C539.797 167.784 537.64 162.297 539.902 159.188C542.187 156.049 548.089 156.419 551.228 154.134C554.336 151.872 555.798 146.132 559.53 144.919C563.133 143.75 567.671 147.497 571.665 147.497C575.658 147.497 580.196 143.75 583.799 144.919C587.534 146.133 588.993 151.872 592.101 154.135C595.241 156.42 601.142 156.049 603.427 159.188C605.689 162.297 603.529 167.784 604.742 171.519C605.915 175.122 610.925 178.274 610.925 182.267Z" fill="#0CBC8B"/>
<path d="M582.299 220.512C580.526 220.512 578.664 219.79 576.847 219.087C575.096 218.409 573.285 217.709 571.666 217.709C570.046 217.709 568.235 218.409 566.484 219.087C564.072 220.02 561.578 220.985 559.324 220.253C556.96 219.485 555.484 217.182 554.058 214.953C553.031 213.351 552.062 211.837 550.832 210.943C549.581 210.032 547.74 209.549 545.966 209.081C543.426 208.409 540.799 207.72 539.358 205.741C537.935 203.784 538.081 201.087 538.227 198.478C538.328 196.631 538.434 194.72 537.948 193.223C537.49 191.811 536.365 190.444 535.175 188.994C533.483 186.934 531.733 184.804 531.733 182.267C531.733 179.73 533.48 177.6 535.175 175.539C536.365 174.09 537.49 172.721 537.948 171.311C538.435 169.814 538.329 167.903 538.228 166.055C538.084 163.446 537.935 160.746 539.359 158.793C540.799 156.813 543.426 156.122 545.966 155.453C547.743 154.983 549.581 154.501 550.833 153.59C552.061 152.696 553.031 151.182 554.058 149.58C555.486 147.352 556.961 145.048 559.324 144.28C561.582 143.549 564.074 144.514 566.485 145.446C568.236 146.124 570.047 146.825 571.667 146.825C573.286 146.825 575.094 146.124 576.848 145.446C579.26 144.514 581.754 143.549 584.009 144.28C586.372 145.049 587.848 147.352 589.275 149.581C590.3 151.183 591.269 152.696 592.501 153.591C593.752 154.501 595.592 154.985 597.366 155.453C599.906 156.125 602.534 156.814 603.974 158.793C605.398 160.749 605.251 163.446 605.105 166.055C605.004 167.903 604.898 169.814 605.385 171.311C605.843 172.723 606.967 174.09 608.158 175.54C609.85 177.6 611.599 179.73 611.599 182.267C611.599 184.804 609.852 186.934 608.158 188.994C606.967 190.444 605.843 191.813 605.385 193.223C604.898 194.72 605.004 196.631 605.105 198.479C605.249 201.088 605.398 203.784 603.974 205.741C602.534 207.72 599.906 208.411 597.366 209.081C595.589 209.551 593.752 210.032 592.5 210.943C591.271 211.838 590.302 213.351 589.274 214.953C587.847 217.182 586.372 219.486 584.008 220.253C583.455 220.429 582.879 220.516 582.299 220.512ZM571.666 216.364C573.536 216.364 575.466 217.112 577.333 217.834C579.626 218.721 581.792 219.56 583.593 218.976C585.499 218.357 586.783 216.355 588.142 214.229C589.19 212.593 590.273 210.901 591.704 209.861C593.16 208.801 595.122 208.285 597.019 207.786C599.438 207.149 601.723 206.547 602.882 204.954C604.025 203.385 603.895 201.041 603.756 198.557C603.648 196.586 603.536 194.548 604.099 192.812C604.636 191.16 605.894 189.628 607.111 188.146C608.654 186.269 610.248 184.327 610.248 182.272C610.248 180.216 608.654 178.274 607.111 176.397C605.894 174.919 604.635 173.383 604.099 171.731C603.536 169.995 603.648 167.957 603.757 165.986C603.891 163.504 604.025 161.158 602.883 159.589C601.724 157.997 599.439 157.395 597.019 156.758C595.122 156.258 593.16 155.741 591.705 154.682C590.271 153.639 589.188 151.947 588.143 150.31C586.783 148.188 585.5 146.183 583.593 145.564C581.792 144.979 579.628 145.817 577.333 146.706C575.467 147.428 573.537 148.176 571.667 148.176C569.796 148.176 567.866 147.428 566 146.706C563.706 145.818 561.54 144.979 559.739 145.563C557.833 146.182 556.55 148.188 555.191 150.31C554.142 151.946 553.059 153.639 551.629 154.682C550.173 155.741 548.211 156.258 546.314 156.758C543.894 157.395 541.609 157.996 540.451 159.588C539.308 161.157 539.438 163.503 539.577 165.985C539.685 167.957 539.798 169.995 539.234 171.731C538.696 173.383 537.439 174.915 536.222 176.397C534.676 178.274 533.085 180.215 533.085 182.272C533.085 184.328 534.679 186.269 536.221 188.146C537.439 189.624 538.697 191.16 539.234 192.812C539.798 194.548 539.685 196.586 539.576 198.557C539.442 201.04 539.308 203.385 540.45 204.954C541.609 206.547 543.894 207.148 546.314 207.786C548.211 208.285 550.173 208.801 551.628 209.861C553.062 210.904 554.146 212.596 555.19 214.229C556.55 216.352 557.833 218.357 559.739 218.976C561.539 219.56 563.704 218.723 565.999 217.834C567.865 217.112 569.795 216.364 571.666 216.364Z" fill="#292A2E"/>
<path d="M571.666 199.679C581.282 199.679 589.078 191.883 589.078 182.267C589.078 172.651 581.282 164.855 571.666 164.855C562.05 164.855 554.254 172.651 554.254 182.267C554.254 191.883 562.05 199.679 571.666 199.679Z" fill="white"/>
<path d="M571.666 200.351C568.089 200.351 564.593 199.29 561.619 197.303C558.645 195.316 556.327 192.492 554.958 189.187C553.59 185.883 553.232 182.247 553.929 178.739C554.627 175.231 556.349 172.009 558.879 169.48C561.408 166.951 564.63 165.228 568.138 164.53C571.646 163.833 575.282 164.191 578.586 165.56C581.891 166.928 584.715 169.246 586.702 172.22C588.689 175.194 589.75 178.69 589.75 182.267C589.745 187.062 587.838 191.658 584.447 195.048C581.057 198.439 576.46 200.346 571.666 200.351ZM571.666 165.527C568.355 165.527 565.119 166.509 562.366 168.348C559.613 170.188 557.467 172.802 556.2 175.861C554.933 178.92 554.602 182.286 555.248 185.533C555.894 188.78 557.488 191.763 559.829 194.104C562.17 196.445 565.153 198.039 568.4 198.685C571.647 199.331 575.013 199 578.072 197.733C581.131 196.466 583.745 194.32 585.585 191.567C587.424 188.814 588.406 185.578 588.406 182.267C588.402 177.828 586.637 173.573 583.498 170.434C580.36 167.295 576.105 165.529 571.666 165.524V165.527Z" fill="#292A2E"/>
</g>
<defs>
<clipPath id="clip0_16_130">
<rect width="700" height="466.971" fill="white"/>
</clipPath>
</defs>
</svg>
