<svg width="17" height="17" viewBox="0 0 17 17" fill="none" xmlns="http://www.w3.org/2000/svg">
<path d="M15.8484 14.3754L12.8432 11.1532C12.7076 11.0078 12.5198 10.9231 12.3199 10.9161L11.8108 10.8983C12.7113 9.82607 13.2719 8.45744 13.3246 6.94913C13.4499 3.36105 10.6436 0.352183 7.05493 0.226863C3.46623 0.101543 0.456885 2.90732 0.331586 6.49541C0.206287 10.0835 3.01258 13.0924 6.60128 13.2177C8.10984 13.2704 9.51448 12.8066 10.6471 11.9833L10.6293 12.4923C10.6224 12.6921 10.6938 12.8853 10.8294 13.0308L13.8347 16.2529C14.118 16.5567 14.5928 16.5733 14.8935 16.2899L15.8082 15.437C16.1121 15.1537 16.1287 14.6791 15.8484 14.3754ZM6.68852 10.7194C4.48033 10.6423 2.75304 8.7936 2.83025 6.58266C2.90734 4.37485 4.75637 2.64788 6.96769 2.7251C9.17588 2.80221 10.9032 4.65094 10.826 6.86188C10.7489 9.06969 8.89983 10.7967 6.68852 10.7194Z" fill="#06283D"/>
</svg>
